<svg id="Layer_1" data-name="Layer 1" xmlns="http://www.w3.org/2000/svg" viewBox="0 0 184 152.28944"><defs><style>.cls-1{fill:#fff;}</style></defs><polygon points="139.89 73.519 138.58 75.379 138.54 75.379 139.89 73.519"/><path d="M1052,538.94v68.12a6.94363,6.94363,0,0,1-6.93994,6.94H874.94a6.94365,6.94365,0,0,1-6.94-6.94V538.94a6.68208,6.68208,0,0,1,.46-2.46v-7.05a19.39272,19.39272,0,0,1,19.4-19.4H979.1L966.15,532h-87.3a5.85211,5.85211,0,0,0-5.8,5.09,6.33244,6.33244,0,0,0-.05.76v65.3a5.85111,5.85111,0,0,0,5.85,5.85h162.3a5.85111,5.85111,0,0,0,5.85-5.85v-65.3a6.32,6.32,0,0,0-.05005-.76A5.852,5.852,0,0,0,1041.15,532h-17.09L1037.76,514.02l1.29-1.05-.32007-.22.98-1.29A19.40464,19.40464,0,0,1,1051.78,529.43v7.66h-.03A7.06371,7.06371,0,0,1,1052,538.94Z" transform="translate(-868 -461.71056)"/><path d="M1018.33,477.09l-24.66,33.45L977.85,532l-.29.39-.09.12L973.9,537.35l-.08.25-8.67,27.46a4.54211,4.54211,0,0,0,.44,3.88c.08.12.16.24.24.34a3.87785,3.87785,0,0,0,5.29.57l24.74-17.95,10.42-14.3,1.35-1.86,2.72-3.74,15.64-21.46,2.77-3.81,10.25-14.07Zm-41.87,80.43-3.06-2.81,2.81-7.92,7.66,6.64Zm30.12-20.43h-.04l1.35-1.86Z" transform="translate(-868 -461.71056)"/><polygon points="139.89 73.519 138.58 75.379 138.54 75.379 139.89 73.519"/><rect x="28.54403" y="99.88809" width="58.21277" height="9.70213"/><rect x="28.54678" y="121.88638" width="80.67999" height="9.7"/><path d="M1031.32687,555.437H1019.6368a13.88962,13.88962,0,0,1,3.15,5.21c.04.11005.07995.23.11.34h8.09v4.44h-7.46a14.19692,14.19692,0,0,1-14.18994,13.96c-.14014,0-.27,0-.41016-.01l10.81006,16.42993-1.88,1.24-1.69006,1.11-13.40991-20.39-2.26-3.24,2.69995-1.76.97-.63,1.32007,2.02h.01a9.62379,9.62379,0,0,0,3.84009.79,9.74875,9.74875,0,0,0,9.75-9.52h-16.4101v-4.44h15.45a2.58831,2.58831,0,0,0-.16-.34,9.73485,9.73485,0,0,0-8.62988-5.21h-6.6601v-5.46h28.65009Z" transform="translate(-868 -461.71056)"/><path d="M1048.45675,478.367l-5.60986,8.42-20.94007-15.06,5.87-8.17s4.34-3.58,8.67993-.77l11.75,8.43S1051.01681,476.06693,1048.45675,478.367Z" transform="translate(-868 -461.71056)"/><polygon points="109.73 70.289 106.08 75.379 106.16 75.129 109.73 70.289"/><polygon points="109.73 70.289 106.08 75.379 106.16 75.129 109.73 70.289"/><polygon points="139.89 73.519 138.58 75.379 138.54 75.379 139.89 73.519"/><polygon class="cls-1" points="109.73 70.289 106.08 75.379 106.16 75.129 109.73 70.289"/><polygon class="cls-1" points="139.89 73.519 138.58 75.379 138.54 75.379 139.89 73.519"/></svg>