<svg id="Layer_1" data-name="Layer 1" xmlns="http://www.w3.org/2000/svg" viewBox="0 0 306.49787 306.58126"><path d="M279.56,59.18C254.59,27.06,221.01,9.16,181.23,2.37,175.15,1.33,169,.78,162.88,0H144.32c-5.91.79-11.88,1.3-17.73,2.42C78.07,11.74,41.86,38.2,18.01,81.36A144.04515,144.04515,0,0,0,.51,141.74,22.63508,22.63508,0,0,1,0,144.32v17.96c.79,5.91,1.3,11.86,2.42,17.7C11.73,228.52,38.18,264.77,81.37,288.59c21.96,12.12,45.77,17.77,70.85,17.99,12.62006.11,22.36005-7.06,25.67-19.18,2.07-7.61.6-14.75-3.96-21.28-2.39-3.41-5.16-6.8-6.51-10.63a25.19571,25.19571,0,0,1,23.06-33.88c9.57-.38,19.16-.12,28.73-.12,17.47-.01,33.81-4.08,48.45-13.81C288.49,193.84,301.71,174.64,305.28,149.82,310.14,115.98,300.23,85.76,279.56,59.18ZM59.19,153.27a25.47815,25.47815,0,1,1,25.89-25.09C84.79,142.28,73.02,153.68,59.19,153.27Zm26.14-92.7c-.85-13.13,8.98-25.17,23.52-26.35.28-.02.55-.04.82-.05A25.33254,25.33254,0,0,1,136.1,58.36c1.12,13.24-9.59,25.53-23.23,26.62C98.29,86.14,86.32,75.9,85.33,60.57Zm66.21,213.08H135.3v17.04h-4.61V273.65H114.45v-4.31h16.24V252.45h4.61v16.89h16.24ZM197.19,84.99A25.43843,25.43843,0,0,1,170.5,60.87c-1.13-13.37,9.55-25.53,23.53-26.65.2-.01.38995-.02.59-.03a25.43248,25.43248,0,0,1,2.57,50.8Zm75.3,42.74A25.50006,25.50006,0,1,1,246.93,102.28h.02a25.48923,25.48923,0,0,1,25.54,25.42Z"/></svg>