<svg id="Layer_1" data-name="Layer 1" xmlns="http://www.w3.org/2000/svg" viewBox="0 0 461.5601 351.92741"><path d="M728,712.17519a204.06713,204.06713,0,0,1,61.01116-19.4098c21.71937-3.32279,43.56657-4.00687,65.24964-.88617,32.9321,4.7398,65.70722,10.56392,98.56917,15.80084,29.07526,4.63346,58.35867,5.62752,87.71922,4.21879,30.81731-1.47857,61.44117-4.61593,91.33589-12.72717,14.33755-3.89015,28.32479-8.751,40.53759-17.57189,12.95513-9.35708,20.53736-22.79266,10.19884-41.17453,8.42032,9.08288,9.29448,24.25293,1.97728,34.5516-5.58631,7.86248-13.48127,12.81054-21.91148,16.9347-18.73341,9.1646-38.835,13.801-59.25162,17.0803-36.46988,5.85772-73.25576,8.79158-110.05956,5.71422-26.97265-2.25535-53.79188-6.82939-80.53146-11.26348-30.07638-4.98733-60.03772-10.86395-90.683-10.23832-31.13087.63554-61.14354,6.60316-89.2624,20.63722-1.219.6084-3.24772-.40679-4.89924-.66566Z" transform="translate(-728 -364.0179)"/><path d="M927.758,421.38c-14.00391,30.42284-19.62554,61.64267-18.64641,94.0599.50221,16.62736,2.4003,33.124,8.02769,49.07657a29.91849,29.91849,0,0,0-.40375-3.70324c-11.61007-49.77-3.73115-97.30923,17.04882-143.12122a101.28821,101.28821,0,0,1,32.58334-39.87473c27.27016-20.11557,59.635-18.114,84.86741,5.18545,18.69134,17.25947,29.701,39.12987,36.65026,63.15572,11.43323,39.52819,11.19281,79.25412.64226,118.92626-.98757,3.71346-.08282,5.13969,3.01854,6.95083,19.10017,11.15407,38.06207,22.54547,57.04127,33.90592a58.98746,58.98746,0,0,1,4.94136,3.72358c-22.13642-12.95333-43.93636-25.70977-66.31778-38.8065-2.08134,5.54885-3.584,9.8955-5.32668,14.14361-8.64416,21.07156-20.131,40.19248-38.02425,54.84944-8.39275,6.87477-18.12916,10.7902-28.45724,13.96324-26.86865,8.25473-53.55644,17.09868-80.31759,25.70389a12.47006,12.47006,0,0,1-5.42663.831c17.80706-9.14328,35.61411-18.28653,53.77118-27.6095-.615-.65256-.92892-1.266-1.40977-1.45551-22.74581-8.964-37.91027-25.97431-49.2954-46.83375-1.85407-3.397-3.7308-4.73418-7.65455-4.60478-12.4912.41194-25.01542.0029-37.49264.61243-15.9041.777-28.0393-5.84875-37.70309-17.80732-10.86888-13.44977-16.57945-29.18927-19.14252-46.0546-4.36673-28.73359-1.44223-56.49391,12.45241-82.49786a66.59614,66.59614,0,0,1,18.39066-22.12742,43.23242,43.23242,0,0,1,25.97209-8.911C900.67944,422.76869,913.801,421.98744,927.758,421.38Zm159.79343,77.86675c-1.10659-7.49236-2.36168-22.31428-5.63084-36.67743-5.21334-22.90513-15.05054-43.72994-32.57788-60.13876-22.48652-21.0515-51.84973-21.86066-75.56828-2.26917a97.3315,97.3315,0,0,0-25.51355,32.92313C928.5408,473.58,925.75218,515.826,936.5865,559.13025c5.37566,21.48627,14.72357,41.11679,31.214,56.49537,16.47439,15.36359,35.55427,21.324,57.45821,13.54871,15.67262-5.56336,27.068-16.70976,36.18907-30.23626C1080.26384,571.03422,1086.86143,539.64775,1087.55146,499.24677Z" transform="translate(-728 -364.0179)"/><path d="M928.79957,603.25228c.19434.12.38921.17279.46776.29839,7.1582,11.44706,7.122,11.41818-1.48949,21.91194a91.11393,91.11393,0,0,1-39.1973,28.275c-27.25641,10.21124-54.27061,21.06951-81.38712,31.6546a2.396,2.396,0,0,1-2.1049.02614c16.80049-10.36726,33.601-20.73455,50.71185-31.29337-37.34662-14.93086-54.29542-45.54576-63.82083-81.0649-13.92385-51.92033-10.06344-102.67249,14.03956-151.2416a113.14536,113.14536,0,0,1,27.21363-35.47289c27.83368-24.19562,62.63059-23.25424,88.89087,2.6754,4.4839,4.42746,8.17622,9.64777,12.3859,14.36638,2.25277,2.52513,2.28667,4.71619.28835,7.42228a92.80768,92.80768,0,0,0-4.81593,8.096c-2.86686-3.25287-5.44981-6.38954-8.24688-9.32179-12.34546-12.94212-27.017-20.562-45.373-18.75846-16.51249,1.62239-29.25627,10.45257-40.0141,22.406-15.33642,17.04083-24.03518,37.48866-28.85472,59.57381-8.54107,39.13878-6.509,77.48558,10.34107,114.36626,6.102,13.35583,14.476,25.12777,26.214,34.17075,22.75817,17.5329,49.85729,16.28553,70.897-3.34568C919.79847,613.46825,924.07157,608.3178,928.79957,603.25228Z" transform="translate(-728 -364.0179)"/><path d="M1073.51093,504.43394c-.51821,28.48057-5.871,52.72738-21.72979,73.66331-7.19651,9.50045-16.148,16.99957-28.08909,19.67549-17.67429,3.96066-31.24565-3.58914-42.26492-16.56434-12.11587-14.26639-18.0272-31.364-20.68088-49.611-3.95564-27.19923-1.19618-53.60958,11.57721-78.25411a85.53631,85.53631,0,0,1,14.49232-20.14966c19.22609-19.68809,44.72233-18.67263,63.01022,1.98228,12.92408,14.59684,19.09682,32.2158,22.00388,51.119C1072.89059,493.19238,1073.13678,500.21519,1073.51093,504.43394Z" transform="translate(-728 -364.0179)"/></svg>