<svg id="Layer_1" data-name="Layer 1" xmlns="http://www.w3.org/2000/svg" viewBox="0 0 322.1234 395.75"><defs><style>.cls-1,.cls-2{fill:none;stroke:#000;stroke-miterlimit:10;}.cls-1{stroke-width:12px;}.cls-2{stroke-width:5px;}.cls-3{fill-rule:evenodd;}</style></defs><path class="cls-1" d="M288,459.9H136.4c-6.8,0-12.3-4.92-12.3-11.01V87.16c0-6.09,5.5-11.01,12.3-11.01H360.3c6.8,0,12.3,4.92,12.3,11.01V270.11" transform="translate(-118.1 -70.15)"/><path class="cls-2" d="M201.7,163.4h-31a6.01763,6.01763,0,0,1-6-6v-31a6.01763,6.01763,0,0,1,6-6h31a6.01764,6.01764,0,0,1,6,6v31A6.01764,6.01764,0,0,1,201.7,163.4Z" transform="translate(-118.1 -70.15)"/><path class="cls-2" d="M261.7,163.4h-31a6.01764,6.01764,0,0,1-6-6v-31a6.01764,6.01764,0,0,1,6-6h31a6.01765,6.01765,0,0,1,6,6v31A6.01765,6.01765,0,0,1,261.7,163.4Z" transform="translate(-118.1 -70.15)"/><path class="cls-2" d="M322.7,163.4h-31a6.01765,6.01765,0,0,1-6-6v-31a6.01765,6.01765,0,0,1,6-6h31a6.01765,6.01765,0,0,1,6,6v31A6.01765,6.01765,0,0,1,322.7,163.4Z" transform="translate(-118.1 -70.15)"/><path class="cls-2" d="M200.9,230.5h-31a6.01764,6.01764,0,0,1-6-6v-31a6.01764,6.01764,0,0,1,6-6h31a6.01763,6.01763,0,0,1,6,6v31A6.01763,6.01763,0,0,1,200.9,230.5Z" transform="translate(-118.1 -70.15)"/><path class="cls-2" d="M325.9,230.5h-31a6.01765,6.01765,0,0,1-6-6v-31a6.01765,6.01765,0,0,1,6-6h31a6.01765,6.01765,0,0,1,6,6v31A6.01763,6.01763,0,0,1,325.9,230.5Z" transform="translate(-118.1 -70.15)"/><path class="cls-3" d="M350.62343,282.11488a89.61114,89.61114,0,0,0-89.58,87.7c-.01.63-.02,1.26-.02,1.9a89.6,89.6,0,1,0,89.6-89.6Zm15.5,32.4c1.7-2.2,3.3-3.3,5-3.3a4.67357,4.67357,0,0,1,3.7,1.4,6.26265,6.26265,0,0,1,1.2,4.1,10.08177,10.08177,0,0,1-2.5,5.9c-1.7,2.2-3.6,3.2-5.8,3.2-3,0-4.4-1.7-4.4-5C363.32338,318.81489,364.2234,316.71491,366.12343,314.5149Zm23.8,64.5a105.74046,105.74046,0,0,1-14.9,16.3,73.58128,73.58128,0,0,1-19.3,13.4c-7,3.4-12.5,5-16.7,5a16.437,16.437,0,0,1-8.07-1.74,8.84394,8.84394,0,0,1-1.53-1.06006c-2.3-1.8-3.4-4.6-3.4-8.3s1.7-8.6,5.1-14.9q1.34994-2.46,2.7-4.85c2.5-4.43,5-8.65,7.5-12.55q5.1-8.1,5.1-10.8a6.56231,6.56231,0,0,0-1.2-4.2,3.6938,3.6938,0,0,0-3-1.5c-2.7.1-6,1.4-9.8,4a3.58572,3.58572,0,0,1-1.6.8q-.29992,0-.3-.6c0-.4.3-.7.8-1.1,5.9-4,10.9-6.1,15.2-6.1,6.2,0,9.4,2.8,9.4,8.5,0,2-1.6,5.8-4.7,11.2-3.1,5.5-6.3,11.2-9.4,17.2-3.1,6-4.7,10.7-4.7,14.1q0,7.2,9.6,7.2c3.1,0,7.2-1.5,12.3-4.4a89.60188,89.60188,0,0,0,13.4-9.2,95.40813,95.40813,0,0,0,10.2-9.6,51.63788,51.63788,0,0,0,5.4-6.5c.7-1.1,1.2-1.7,1.6-1.7.4,0,.6.1.6.4A2.2355,2.2355,0,0,1,389.92342,379.0149Z" transform="translate(-118.1 -70.15)"/><path class="cls-2" d="M309.09,373.9H167.9a6.01764,6.01764,0,0,0-6,6v31a6.01764,6.01764,0,0,0,6,6H309.09" transform="translate(-118.1 -70.15)"/></svg>