<svg id="Layer_1" data-name="Layer 1" xmlns="http://www.w3.org/2000/svg" viewBox="0 0 170.30005 191.23999"><path d="M1020.17,464.09H905.79a3.30969,3.30969,0,0,0-3.32,3.31v6.01h6.79a14.675,14.675,0,1,1,0,29.35h-6.79v11.65h6.79a14.675,14.675,0,1,1,0,29.35h-6.79v11.65h6.79a14.675,14.675,0,1,1,0,29.35h-6.79v10.65h6.79a14.67251,14.67251,0,0,1,10.38,25.05c-.22.22-.45.44-.69.65a14.6556,14.6556,0,0,1-9.69,3.65h-6.79v6.56a3.31821,3.31821,0,0,0,3.32,3.32h114.38a3.32459,3.32459,0,0,0,3.32-3.32V467.4A3.316,3.316,0,0,0,1020.17,464.09Zm-67.62,47.47v-6.77H976.1c-.06995-.17-.16-.34-.25-.51a14.83233,14.83233,0,0,0-13.15-7.95H952.55v-8.31h43.66v8.31H978.4a21.47008,21.47008,0,0,1,4.8,7.95c.06.17.11.34.16.51H995.7v6.77H984.32a21.62155,21.62155,0,0,1-21.62,21.28c-.21,0-.42,0-.63-.02l16.48,25.05-2.87,1.89-2.57,1.69-20.44-31.08-3.44-4.94,4.11005-2.68,1.47-.96,2.02,3.08h.01a14.8718,14.8718,0,0,0,20.72-13.31Zm-10.11,77.63a3.71364,3.71364,0,0,1,2.62-1.08h57.45a3.69168,3.69168,0,0,1,3.7,3.7,3.7045,3.7045,0,0,1-3.7,3.7H945.06a3.70525,3.70525,0,0,1-2.62-6.32Zm0,15.71a3.68044,3.68044,0,0,1,2.62-1.09h57.45a3.7,3.7,0,1,1,0,7.4H945.06a3.69816,3.69816,0,0,1-2.62-6.31Z" transform="translate(-878.46997 -443.40002)"/><path d="M916.77,488.09a7.13573,7.13573,0,0,1-7.15,7.13995h-24a7.145,7.145,0,1,1,0-14.29h24A7.14853,7.14853,0,0,1,916.77,488.09Z" transform="translate(-878.46997 -443.40002)"/><path d="M916.77,529.09a7.13573,7.13573,0,0,1-7.15,7.13995h-24a7.145,7.145,0,1,1,0-14.29h24A7.14853,7.14853,0,0,1,916.77,529.09Z" transform="translate(-878.46997 -443.40002)"/><path d="M962.28,497.79c-.35,0-.7.01-1.04.04l-.04-.04Z" transform="translate(-878.46997 -443.40002)"/><path d="M916.77,610.09a7.13573,7.13573,0,0,1-7.15,7.13995h-24a7.145,7.145,0,1,1,0-14.29h24A7.14853,7.14853,0,0,1,916.77,610.09Z" transform="translate(-878.46997 -443.40002)"/><path d="M916.77,570.09a7.13573,7.13573,0,0,1-7.15,7.13995h-24a7.145,7.145,0,1,1,0-14.29h24A7.14853,7.14853,0,0,1,916.77,570.09Z" transform="translate(-878.46997 -443.40002)"/><path d="M909.62,536.23H901.7V521.94h7.92a7.145,7.145,0,1,1,0,14.29Z" transform="translate(-878.46997 -443.40002)"/><path d="M909.62,495.23H901.7V480.94h7.92a7.145,7.145,0,1,1,0,14.29Z" transform="translate(-878.46997 -443.40002)"/><path d="M1020.17,464.09H905.79a3.30969,3.30969,0,0,0-3.32,3.31v6.01h6.79a14.675,14.675,0,1,1,0,29.35h-6.79v11.65h6.79a14.675,14.675,0,1,1,0,29.35h-6.79v11.65h6.79a14.675,14.675,0,1,1,0,29.35h-6.79v10.65h6.79a14.67251,14.67251,0,0,1,10.38,25.05c-.22.22-.45.44-.69.65h104.54V467.4A3.316,3.316,0,0,0,1020.17,464.09Zm-67.62,47.47v-6.77H976.1c-.06995-.17-.16-.34-.25-.51a14.83233,14.83233,0,0,0-13.15-7.95H952.55v-8.31h43.66v8.31H978.4a21.47008,21.47008,0,0,1,4.8,7.95c.06.17.11.34.16.51H995.7v6.77H984.32a21.62155,21.62155,0,0,1-21.62,21.28c-.21,0-.42,0-.63-.02l16.48,25.05-2.87,1.89-2.57,1.69-20.44-31.08-3.44-4.94,4.11005-2.68,1.47-.96,2.02,3.08h.01a14.8718,14.8718,0,0,0,20.72-13.31Zm52.58,98.57a3.6785,3.6785,0,0,1-2.62,1.08H945.06a3.7,3.7,0,0,1,0-7.4h57.45a3.70523,3.70523,0,0,1,2.62,6.32Zm0-15.71a3.64613,3.64613,0,0,1-2.62,1.09H945.06a3.7,3.7,0,1,1,0-7.4h57.45a3.69168,3.69168,0,0,1,3.7,3.7A3.6549,3.6549,0,0,1,1005.13,594.42Z" transform="translate(-878.46997 -443.40002)"/><path d="M1048.77,457.57V606.94a14.17759,14.17759,0,0,1-14.17,14.17h-3.78992V454.77H901.98a14.1821,14.1821,0,0,1,13.89-11.37H1034.6a14.1735,14.1735,0,0,1,14.17,14.17Z" transform="translate(-878.46997 -443.40002)"/><path d="M1048.77,454.77v2.8a14.29918,14.29918,0,0,0-.28-2.8Z" transform="translate(-878.46997 -443.40002)"/></svg>