<svg id="Layer_1" data-name="Layer 1" xmlns="http://www.w3.org/2000/svg" viewBox="0 0 565.15531 571.43132"><defs><style>.cls-1{fill:#fff;}.cls-2,.cls-3{fill:none;stroke:#000;stroke-miterlimit:10;}.cls-2{stroke-width:12px;}.cls-3{stroke-width:3px;}</style></defs><path class="cls-1" d="M706.47566,398.1062A28.79386,28.79386,0,0,1,677.606,369.23649V276.03762a28.79373,28.79373,0,0,1,28.86971-28.86971h93.19887a28.79386,28.79386,0,0,1,28.86971,28.86971v93.19887a28.79374,28.79374,0,0,1-28.86971,28.86971Z" transform="translate(-658.46399 -228.65378)"/><path d="M799.36061,266.30988a10.11116,10.11116,0,0,1,10.04166,10.04166v93.19887a10.11122,10.11122,0,0,1-10.04166,10.04166H706.16174a10.11116,10.11116,0,0,1-10.04166-10.04166V276.35154a10.11123,10.11123,0,0,1,10.04166-10.04166h93.19887m0-37.6561H706.16174A47.67652,47.67652,0,0,0,658.464,276.35154v93.19887a47.67658,47.67658,0,0,0,47.69775,47.69775h93.19887a47.67652,47.67652,0,0,0,47.69776-47.69775V276.35154a47.67653,47.67653,0,0,0-47.69776-47.69776Z" transform="translate(-658.46399 -228.65378)"/><path d="M1175.92154,266.30988a10.11116,10.11116,0,0,1,10.04166,10.04166v93.19887a10.11122,10.11122,0,0,1-10.04166,10.04166h-93.19887a10.11116,10.11116,0,0,1-10.04166-10.04166V276.35154a10.11123,10.11123,0,0,1,10.04166-10.04166h93.19887m0-37.6561h-93.19887a47.67652,47.67652,0,0,0-47.69775,47.69776v93.19887a47.67658,47.67658,0,0,0,47.69775,47.69775h93.19887a47.67652,47.67652,0,0,0,47.69776-47.69775V276.35154a47.67653,47.67653,0,0,0-47.69776-47.69776Z" transform="translate(-658.46399 -228.65378)"/><path class="cls-1" d="M706.47566,780.94314A28.7938,28.7938,0,0,1,677.606,752.07343V658.87457a28.79379,28.79379,0,0,1,28.86971-28.86971h93.19887a28.7938,28.7938,0,0,1,28.86971,28.86971v93.19886a28.7938,28.7938,0,0,1-28.86971,28.86971Z" transform="translate(-658.46399 -228.65378)"/><path d="M799.36061,649.14682a10.11123,10.11123,0,0,1,10.04166,10.04166v93.19887A10.11122,10.11122,0,0,1,799.36061,762.429H706.16174a10.11122,10.11122,0,0,1-10.04166-10.04166V659.18848a10.11123,10.11123,0,0,1,10.04166-10.04166h93.19887m0-37.65609H706.16174A47.67651,47.67651,0,0,0,658.464,659.18848v93.19887a47.67652,47.67652,0,0,0,47.69775,47.69776h93.19887a47.67653,47.67653,0,0,0,47.69776-47.69776V659.18848a47.67652,47.67652,0,0,0-47.69776-47.69775Z" transform="translate(-658.46399 -228.65378)"/><path class="cls-1" d="M1083.03659,780.94314a28.79379,28.79379,0,0,1-28.86971-28.86971V658.87457a28.79379,28.79379,0,0,1,28.86971-28.86971h93.19887a28.7938,28.7938,0,0,1,28.86971,28.86971v93.19886a28.7938,28.7938,0,0,1-28.86971,28.86971Z" transform="translate(-658.46399 -228.65378)"/><path d="M1175.92154,649.14682a10.11123,10.11123,0,0,1,10.04166,10.04166v93.19887a10.11122,10.11122,0,0,1-10.04166,10.04166h-93.19887a10.11122,10.11122,0,0,1-10.04166-10.04166V659.18848a10.11123,10.11123,0,0,1,10.04166-10.04166h93.19887m0-37.65609h-93.19887a47.67651,47.67651,0,0,0-47.69775,47.69775v93.19887a47.67652,47.67652,0,0,0,47.69775,47.69776h93.19887a47.67653,47.67653,0,0,0,47.69776-47.69776V659.18848a47.67652,47.67652,0,0,0-47.69776-47.69775Z" transform="translate(-658.46399 -228.65378)"/><polyline class="cls-2" points="376.875 91.002 188.594 91.002 179.18 91.002"/><polyline class="cls-2" points="376.875 473.839 188.594 473.839 179.18 473.839"/><polyline class="cls-2" points="474.153 175.728 474.153 188.28 474.153 382.837"/><polyline class="cls-2" points="94.454 175.728 94.454 188.28 94.454 382.837"/><line class="cls-3" x1="69.35009" y1="411.07901" x2="22.27997" y2="458.14913"/><line class="cls-3" x1="114.8512" y1="403.23399" x2="9.72794" y2="508.35725"/><line class="cls-3" x1="152.50729" y1="400.09599" x2="16.00395" y2="536.59932"/><line class="cls-3" x1="169.76633" y1="420.49304" x2="37.97001" y2="552.28936"/><line class="cls-3" x1="176.04235" y1="455.01112" x2="69.35009" y2="561.70338"/><line class="cls-3" x1="187.02538" y1="481.68419" x2="105.43717" y2="563.27239"/></svg>