<svg id="Layer_1" data-name="Layer 1" xmlns="http://www.w3.org/2000/svg" viewBox="0 0 421.89974 454.51807"><defs><style>.cls-1{fill:#fff;}</style></defs><path d="M887.79391,483.44348c45.66589-48.89953,76.18377-105.15526,96.71256-167.94674l19.43265,3.81317c-3.06886,9.053-5.75009,17.55018-8.81487,25.90669-18.21316,49.66051-43.69131,95.07667-78.86868,134.83209a9.00193,9.00193,0,0,1-7.79849,3.4665C902.05225,483.26856,895.63119,483.44348,887.79391,483.44348Z" transform="translate(-815.68803 -313.02915)"/><path d="M1022.73,754.85h.02c.7-.25,1.41-.5,2.12-.75-1.48-1.92-2.51-3.21-3.49-4.55-4.83-6.56-9.77-13.04-14.65-19.55-.41-.54-.82-1.09-1.23-1.63-5.34-7.15-10.59-14.35-15.52-21.76-1.25-1.88-2.49-3.77-3.7-5.67h-8.49v-7.36h3.87q-9.9-16.17-18.25-33.08a456.73845,456.73845,0,0,1-24.17-58.94c-.69-2.07-.71-4.7-4.28-4.51-5.55.28-11.12.07-17.38.07.49,1.93.79,3.23,1.17,4.51a431.86242,431.86242,0,0,0,33.46,80.8c.03.06.07.13.1.19a431.96419,431.96419,0,0,0,49.55,73.26h.01Z" transform="translate(-815.68803 -313.02915)"/><path d="M1019.36415,324.15788l18.62729,9.22747c-7.71315,19.85435-14.62573,39.41452-22.84609,58.40851a404.23465,404.23465,0,0,1-51.97348,87.30774c-2.56923,3.31291-5.162,4.6775-9.30118,4.43109-5.8927-.35078-11.82181-.08916-18.99571-.08916C974.30177,436.027,1001.25038,382.85806,1019.36415,324.15788Z" transform="translate(-815.68803 -313.02915)"/><path d="M945.12368,515.92162q-46.67732,0-93.35463-.00593a30.26435,30.26435,0,0,1-5.06047-.17243,7.94111,7.94111,0,0,1-6.725-8.26891c.31333-4.23676,2.72932-6.83911,6.86635-7.63161a27.19083,27.19083,0,0,1,5.06022-.15535q93.60831-.00857,187.21663-.002a28.61511,28.61511,0,0,1,4.55909.09888c4.39409.71566,6.9547,3.35739,7.22784,7.83174.25547,4.18421-2.95673,7.689-7.36621,8.2188a38.44567,38.44567,0,0,1-4.56188.08424Q992.05468,515.92422,945.12368,515.92162Z" transform="translate(-815.68803 -313.02915)"/><path d="M944.94444,548.39972q-46.42357,0-92.84715-.00394a28.36961,28.36961,0,0,1-5.06246-.13235c-4.36306-.80069-7.0134-3.49043-7.01432-7.98466-.00093-4.49136,2.63517-7.17818,7.00583-7.9894a25.23446,25.23446,0,0,1,4.55608-.12491q93.8619-.00658,187.72378-.00009a25.35913,25.35913,0,0,1,4.55631.12283c4.37256.80741,7.013,3.5021,7.01719,7.98432.00412,4.48664-2.64831,7.18707-7.011,7.99164a28.23875,28.23875,0,0,1-5.06237.13262Q991.87538,548.40387,944.94444,548.39972Z" transform="translate(-815.68803 -313.02915)"/><path d="M945.4508,564.63889q46.931-.00014,93.8619.00368a25.277,25.277,0,0,1,4.55615.12381c4.372.81048,7.01054,3.50719,7.01085,7.98965.00031,4.48642-2.6541,7.18477-7.01738,7.9863a28.327,28.327,0,0,1-5.06249.13164q-93.35452.00683-186.709.00384c-.50737,0-1.01474.00267-1.52209-.00062-6.84638-.0442-10.615-2.93059-10.61234-8.12686.00272-5.203,3.75371-8.10265,10.61786-8.10553Q898.01251,564.625,945.4508,564.63889Z" transform="translate(-815.68803 -313.02915)"/><path d="M1061.68867,557.72111c2.40223-6.2994,4.45974-11.695,6.50475-17.05762,10.28958,13.30062,25.32108,15.93653,41.30954,15.7672,9.09078-.09627,16.71444-4.04514,22.8588-10.55535,6.02941-6.38838,11.725-13.09333,17.52774-19.694,20.77206-23.62868,48.47022-21.08882,65.97625-12.17057a44.38984,44.38984,0,0,1,20.56277,21.6414c2.43549,5.3066.94582,9.92544-3.64579,11.98261-4.3276,1.93888-8.41783.067-11.043-5.05368-9.80926-19.13432-36.86659-25.07175-53.41884-11.174-6.54191,5.49277-11.95993,12.366-17.65119,18.821-8.27437,9.38482-17.1061,18.14679-29.82789,20.76858C1099.03967,575.48984,1078.97067,571.587,1061.68867,557.72111Z" transform="translate(-815.68803 -313.02915)"/><path d="M1006.62,664.77h-1.12v28.81h-4.73a437.49468,437.49468,0,0,1-24.84-44.74,449.17164,449.17164,0,0,1-21.05-51.72c6.57,0,12.49-.26,18.35.19,1.44.11,3.33,2.33,3.96,3.98,5.06,13.31,10.59,26.39,16.74,39.17Q999.87,652.82,1006.62,664.77Z" transform="translate(-815.68803 -313.02915)"/><path d="M1024.78,693.58h-11.43V676.16c1.47,2.39,2.98,4.77,4.51,7.13C1020.11,686.76,1022.42,690.18,1024.78,693.58Z" transform="translate(-815.68803 -313.02915)"/><path d="M1054.14,733.76c-5.06994,4.28-9.67,8.15-14.52,12.25q-14.04-16.395-26.27-33.67v-11.4h16.6c6.66,9.31,13.53,18.48,20.19006,27.79C1051.21,730.23,1052.42993,731.62,1054.14,733.76Z" transform="translate(-815.68803 -313.02915)"/><path d="M980.21331,483.4431c31.9694-42.80193,54.4708-89.01051,71.71075-139.34762,4.22361,6.12026,8.52817,12.188,12.57426,18.42345.54078.8334-.011,2.58848-.41885,3.79431-13.76588,40.70674-32.42016,78.96507-57.48012,113.96212a8.37358,8.37358,0,0,1-5.61862,3.02558C994.4683,483.6766,987.92075,483.4431,980.21331,483.4431Z" transform="translate(-815.68803 -313.02915)"/><path d="M1063.92,719.96a437.95265,437.95265,0,0,1-52.75-81.53,449.66485,449.66485,0,0,1-18.08-41.31c6.72,0,12.65-.3,18.51.19,1.66.14,3.83,2.32,4.57,4.07a462.36314,462.36314,0,0,0,21.43,44.17q10.845,19.695,23.64,38.32c2.19,3.2,4.18,6.63,6.81,9.43.08.08.15.16.22.24Z" transform="translate(-815.68803 -313.02915)"/><path d="M910.76162,629.79668c1.87546,4.8039,4.00515,9.57888,5.49172,14.54635.37031,1.23742-.91208,3.67231-2.15067,4.58377a290.81873,290.81873,0,0,0-54.22646,51.59786c-8.15878,10.10459-15.66361,20.73734-24.0995,31.97837-3.18367-4.82911-6.42539-9.58485-9.42931-14.48638-.42367-.6913.00872-2.292.55775-3.13944,21.95832-33.8934,49.13119-62.69822,83.06146-84.8787A3.6708,3.6708,0,0,1,910.76162,629.79668Z" transform="translate(-815.68803 -313.02915)"/><path d="M817.91593,697.10921c-.79533-8.24143-1.63027-16.07532-2.22194-23.92757-.08633-1.14577.781-2.53763,1.55536-3.54876,22.34461-29.1779,49.10793-53.39535,80.92819-71.91089a17.24941,17.24941,0,0,1,2.0413-.7687c1.53688,4.97314,3.16727,9.82849,4.44465,14.775.22629.87636-.73321,2.56978-1.62425,3.15022-33.14374,21.5923-60.50374,49.09118-83.30574,81.27685C819.56928,696.38719,819.17925,696.459,817.91593,697.10921Z" transform="translate(-815.68803 -313.02915)"/><path d="M918.919,417.57564c-3.37749,4.96575-6.39683,9.40492-10.14848,14.92079-12.92181-9.1626-25.817-17.764-38.10687-27.15764-15.48891-11.83887-28.877-25.90306-41.03357-41.15821-2.05806-2.58264-2.29667-4.52966-.2966-7.058,2.80494-3.54581,5.45615-7.21326,8.6688-11.48827C860.34348,375.16676,887.35757,398.4777,918.919,417.57564Z" transform="translate(-815.68803 -313.02915)"/><path d="M863.21842,752.73277,848.555,743.996c20.15217-32.23935,44.787-59.54146,75.30193-82.0226,2.379,4.93885,4.84785,9.37714,6.56851,14.08871.46735,1.2797-.8489,3.96981-2.14839,5.02183a307.9108,307.9108,0,0,0-49.25389,50.07384C873.73872,737.9335,868.85033,745.01813,863.21842,752.73277Z" transform="translate(-815.68803 -313.02915)"/><path d="M860.47405,347.78571l-10.04033-12.61013c36.67219-22.35187,76.51521-23.25815,117.5923-21.616-1.98087,5.72081-3.67364,10.60961-5.41085,15.62669C927.44866,328.8263,893.07907,331.53956,860.47405,347.78571Z" transform="translate(-815.68803 -313.02915)"/><path d="M899.57289,444.89261c-4.56869,5.55047-8.533,10.36667-13.13621,15.95909-9.06768-6.35352-18.17994-12.38509-26.90638-18.93114a231.09951,231.09951,0,0,1-40.62517-38.7953,11.76627,11.76627,0,0,1-2.27978-7.63556c.41433-5.51093,1.72273-10.95462,2.91114-17.84629A294.44793,294.44793,0,0,0,899.57289,444.89261Z" transform="translate(-815.68803 -313.02915)"/><path d="M1073.3093,390.78352c3.83789,29.23523,2.17771,57.1796-17.77636,80.94715-9.37025,11.161-15.17454,13.11331-30.79385,11.23011A504.05531,504.05531,0,0,0,1073.3093,390.78352Z" transform="translate(-815.68803 -313.02915)"/><path d="M948.47148,708.82229c-1.68181,1.46907-3.1817,2.78482-4.68747,4.09377a292.1974,292.1974,0,0,0-43.688,47.06566c-2.064,2.79793-3.93869,3.53665-7.12458,2.5424-4.30453-1.34332-8.72026-2.33029-13.856-3.67049a287.70776,287.70776,0,0,1,60.25227-65.72572C942.47164,698.47889,945.385,703.50141,948.47148,708.82229Z" transform="translate(-815.68803 -313.02915)"/><path d="M871.80623,360.31212c27.1461-12.31844,55.14022-14.66916,84.5447-14.96358-2.42462,5.61022-4.44581,10.67868-6.86463,15.54962-.47772.962-2.45605,1.55555-3.7927,1.65731-18.92629,1.4409-37.42385,4.84139-55.2655,11.50965-1.17965.44089-3.1995.42143-4.03546-.3014C881.57711,369.59993,877.00058,365.15967,871.80623,360.31212Z" transform="translate(-815.68803 -313.02915)"/><path d="M816.6574,427.41377q28.43053,22.8897,57.83207,46.5612c-2.515,2.402-5.40433,7.24268-9.41962,8.50728-5.97818,1.88277-12.95251,2.76738-18.912-1.31308-15.20627-10.41172-23.151-25.55249-27.47236-42.93915C817.72455,434.36364,817.205,430.38755,816.6574,427.41377Z" transform="translate(-815.68803 -313.02915)"/><path d="M1032.3598,597.6554c6.01287-1.53236,10.63146-.07146,14.99659,3.44506,16.84036,13.56646,24.19877,31.95808,26.90425,52.65747a127.4351,127.4351,0,0,1,.75251,20.26511A385.47841,385.47841,0,0,1,1032.3598,597.6554Z" transform="translate(-815.68803 -313.02915)"/><path d="M957.30994,723.08011c3.1089,4.565,6.21285,9.12279,8.45909,12.42113-5.74752,6.48554-11.20746,12.65253-16.67718,18.81081a15.39062,15.39062,0,0,0-2.0692,2.21343c-7.11817,12.4101-18.13531,12.35184-29.97383,9.27133C919.56042,759.11592,944.61545,732.401,957.30994,723.08011Z" transform="translate(-815.68803 -313.02915)"/><path d="M819.25473,639.94011c4.80337-17.31519,12.82706-32.65938,29.02739-41.45865,5.14628-2.79524,12.62763-1.29008,19.21559-1.76543Z" transform="translate(-815.68803 -313.02915)"/><path d="M927.41529,404.03824l-24.06648-16.16888.09377-1.67129,36.16949-7.36727.8459,1.36724Z" transform="translate(-815.68803 -313.02915)"/><path d="M976.64062,750.46681c3.61488,4.59929,7.01882,8.93019,11.19147,14.23912l-28.04367,2.84129C965.67509,761.58085,970.91956,756.26533,976.64062,750.46681Z" transform="translate(-815.68803 -313.02915)"/><path d="M986.28,700.94c1.21,1.9,2.44995,3.79,3.69995,5.67,4.93,7.41,10.18,14.61,15.52,21.76V700.94Zm81.99-7.4a58.91063,58.91063,0,0,0-57.1-55.11q-.86993-.03-1.74-.03a59.09507,59.09507,0,0,0-15.5,2.06,59.13079,59.13079,0,0,0-41.62,42.16,59.397,59.397,0,0,0-1.86,14.76,59,59,0,0,0,51.41,58.5h.01a59.48831,59.48831,0,0,0,20.86-1.03h.02a58.95287,58.95287,0,0,0,45.65-57.47C1068.4,696.09,1068.36,694.81,1068.27,693.54Zm-62.77,34.83V700.94H977.79v-7.36h27.71V664.77h7.85v28.81h27.71008v7.36H1013.35V730h-6.62C1006.32,729.46,1005.91,728.91,1005.5,728.37Zm-19.22-27.43c1.21,1.9,2.44995,3.79,3.69995,5.67,4.93,7.41,10.18,14.61,15.52,21.76V700.94Z" transform="translate(-815.68803 -313.02915)"/><path class="cls-1" d="M1005.5,728.37V730h1.23C1006.32,729.46,1005.91,728.91,1005.5,728.37Z" transform="translate(-815.68803 -313.02915)"/></svg>