<svg id="Layer_1" data-name="Layer 1" xmlns="http://www.w3.org/2000/svg" viewBox="0 0 203.17773 141.66083"><defs><style>.cls-1{fill:#fff;}</style></defs><path d="M874.93,582.07h-6.01c0,.02.01.03.01.05h6.01C874.94,582.1,874.93,582.09,874.93,582.07Zm176.65009-19.29c-3.43006-17.44-13.01-25.34-30.70008-25.78-.58-.01-1.16-.14-2.35-.29,1.01-1.24,1.62-1.97,2.21-2.71,10.71-13.51,11.66-34.49,2.06-48.74-5.05-7.51-11.81-11.75-21.31-11.68-27.85.2-55.71.03-83.56.1-14.73.03-31.21,11.03-36.54,24.68-1.49,3.82-1.77,8.11-2.75,12.92h10.53c3.84,9.13995,7.27,17.29,10.84,25.77-.74,0-2.38.07-4.01-.01-9.19-.42-16.02,3.69-21.2,10.97l-.21.3a30.59808,30.59808,0,0,0-1.87006,3.04,43.67338,43.67338,0,0,0-4.5,27.03h5.91a36.21955,36.21955,0,0,1,4.93-26.44c.22-.35.44-.69.68-1.02a19.33955,19.33955,0,0,1,3.34-3.76,18.08182,18.08182,0,0,1,12.63-4.35c21.67.2,43.34.06,65.01.07,1.26,0,2.51.13,3.98.21-14.02,22.6-13.97,37.11.21,57.17-1.68.12-3.11.31-4.53.31q-24.495.03-49,.02h-2.84q-6.075,0-12.17.02c-4.48.01-8.67-.59-12.47-3.96h-3.27v-7.6a6.91275,6.91275,0,0,1-1.17-.15v11.49h-.22a23.67777,23.67777,0,0,0,16.5,5.95c3.02-.01,6.03-.02,9.05-.03h1.6q58.98-.21,117.95008.02c9.7.05,16.6499-4.1,21.7-11.86005C1052.35,584.75,1053.78,573.98,1051.58008,562.78ZM1016.51,486.32c4.54,5.48,7.03,13.18,7.06,21.87-.06,8.02-1.88,15.51-7.02,21.87-7.45,9.22-18.45,9.29-26.07.25-9.66-11.43-9.68-32.72-.05-44.12C998.1,477.11,1008.92,477.17,1016.51,486.32Zm-5.47,56.73c-2.59,3.96-4.98,7.62-7.55,11.55-2.46-3.63-4.96-7.33-7.82-11.55ZM885.73,504.98c2.2-12.45,16.83-25.15,30.42-25.46,21.99-.5,44-.15,66.01-.13.41,0,.83.35,1.31.56-13.37,12.33-14.11,13.36-17.68,25.03Zm73.39,32.04q-19.485.015-38.97.03c-13.7-.01-23.93005-11.46-22.78-25.98h73.6C973.77,498.06,975,495.49,980.62,491c-5.56,16.48-4.2,31.64,7.85,46.02Zm8.41,56.96c-9.74-11.42-9.91-32.55-.36005-44.12,7.82-9.47,19.19-9.29,26.69.53,4.84,6.33,6.64,13.65,6.6,21.51-.06,8.23-2.06,15.83-7.51,22.19C985.6,602.67,974.85,602.57,967.53,593.98Zm28.24,6.32c2.79-4.21,5.22-7.88,7.66-11.57,2.48,3.77,4.93,7.49,7.62,11.57ZM1039.7,593.47c-7.3999,9.23-18.48,9.35-26.06995.36005-9.69-11.5-9.77-32.58-.15-44.12,7.59-9.09,18.52-9.12,26.08008.04,5.09,6.17,6.8999,13.51,7.15991,22.16C1046.67993,579.27,1044.93994,586.94,1039.7,593.47ZM948.07,595.03a30.52177,30.52177,0,0,0,.4-3.22,23.64809,23.64809,0,0,0-.36-2.83H911.56c-9,.01-18-.09-26.99.04v6.01Zm-78.09-9.22a36.26534,36.26534,0,0,0,4.96,9.77c.19.26.39.52.58.78V585.81Z" transform="translate(-849.37 -473.57916)"/><path class="cls-1" d="M995.76573,600.30226c2.79138-4.2162,5.21961-7.88387,7.66037-11.57052l7.62473,11.57052Z" transform="translate(-849.37 -473.57916)"/><path class="cls-1" d="M995.67211,543.04532h15.37052c-2.59255,3.96594-4.9872,7.62915-7.55574,11.55838Z" transform="translate(-849.37 -473.57916)"/><path d="M1034.68994,552.95c-4.99-5.67-11.28992-5.73-16.27.01a26.32691,26.32691,0,0,0-6.27,16.01c-.09,9.76,2.31,17.06006,6.23,21.48,5.1,5.75,11.12,5.75,16.26.02C1042.97,581.15,1043,562.4,1034.68994,552.95Zm-.81994,25.68v.01a24.06341,24.06341,0,0,1-3.23,7.43c-2.21008,3.92-5.12,3.71-8.07.44-6.24-6.93-6.11-23.1.17-29.85,2.53-2.71,5.41-3.08,7.25-.18-.38-.37-.62-.57-.68994-.63C1029.66992,556.39,1036.73,566.88,1033.87,578.63Z" transform="translate(-849.37 -473.57916)"/><path d="M1011.84,489.77c-5.23-6.13-11.85-6.14-16.92.13995-4.24,5.26-5.81,11.48-5.92,19.05005.08,6.09,1.66,12.64,6.36,18.05,5.02,5.77,11.22,5.66,16.25-.09C1019.76,517.61,1019.87,499.2,1011.84,489.77Zm-4.57,33.37c-2.82,3.11-5.91,3.1-7.76-.33-2.45-4.54-3.94-9.6-6.02-14.87,2.13-5.17,3.64-10.05,6.09-14.41,1.93-3.44,4.96-3.33,7.73-.19C1013.59,500.43,1013.58,516.16,1007.27,523.14Z" transform="translate(-849.37 -473.57916)"/><path d="M985.98,560.73c.67,1.54,1.28,3.12,1.89,4.74A29.75745,29.75745,0,0,0,985.98,560.73Z" transform="translate(-849.37 -473.57916)"/><path d="M988.42,552.9c-5.07-5.66-11.29-5.68005-16.25.12-4.54,5.29-6.16,11.66-6.26,19.13.11005,6.37,1.62006,12.93,6.34,18.34,5.06,5.79,11.13,5.69,16.24-.08C996.78,581.05,996.74,562.2,988.42,552.9Zm-3.54,32.65a20.22772,20.22772,0,0,1-1.28,1.65l-.43.5c-1.84,1.83-4.3,1.57-6.66-1-6.27-6.84-6.36-22.94-.13-29.85,2.71-3,5.84-3.4,7.78.15q.43506.795.84,1.62c.33.67.64,1.35.94,2.04a.577.577,0,0,1,.04.07,29.75745,29.75745,0,0,1,1.89,4.74v.02a24.48529,24.48529,0,0,1,.96,10.07A21.82511,21.82511,0,0,1,984.88,585.55Z" transform="translate(-849.37 -473.57916)"/><path d="M1029.04128,577.16962h-5.18482v-10.9671l5.18482-.264Z" transform="translate(-849.37 -473.57916)"/><path d="M1005.909,513.81672h-5.09285V502.75549h5.09285Z" transform="translate(-849.37 -473.57916)"/><path d="M982.94465,577.20355h-5.27447V566.17769h5.27447Z" transform="translate(-849.37 -473.57916)"/><path class="cls-1" d="M985.94,560.66a19.32242,19.32242,0,0,0-1.09-1.94l.15-.1C985.33,559.29,985.64,559.97,985.94,560.66Z" transform="translate(-849.37 -473.57916)"/><path d="M884.85,547.18q-.72-.03-1.44-.03c-.11,0-.22,0-.33.01a33.50119,33.50119,0,0,0-5.25.45,31.60369,31.60369,0,0,0-3.24.7,34.04549,34.04549,0,1,0,31.8,58,35.46226,35.46226,0,0,0,3.51-3.74c.52-.64,1.02-1.3,1.48-1.98a32.95855,32.95855,0,0,0,2.27-3.74c.31-.6.6-1.2.87-1.81995a34.228,34.228,0,0,0,1.41-3.74c.23-.76.44-1.53.61-2.31a30.77638,30.77638,0,0,0,.67-3.74,34.05523,34.05523,0,0,0-32.36-38.06Zm-.28,49.47h-3.94V582.07h-13.9v-3.69h13.9V563.92h3.94v14.46h13.9v3.69h-13.9Z" transform="translate(-849.37 -473.57916)"/></svg>