<svg id="Layer_1" data-name="Layer 1" xmlns="http://www.w3.org/2000/svg" viewBox="0 0 372.30301 372.29353"><path d="M1027.4405,616.37228a102.17371,102.17371,0,0,1-61.224,25.341v24.80227c9.11008,2.35029,16.3202,7.50342,20.63882,16.18138a29.37688,29.37688,0,0,1,2.28083,20.42636,29.99844,29.99844,0,0,1-58.9422-3.69609c-1.50906-11.8961,4.74116-27.89666,23.64093-32.94528V641.77213a102.87392,102.87392,0,0,1-61.38723-25.50953c-.91566.83538-1.66467,1.46614-2.35471,2.1559q-29.30645,29.29347-58.63969,58.55985c-1.76638,1.75564-2.16356,2.952-.90693,5.3551a29.66839,29.66839,0,0,1-6.66975,36.21115,30.05548,30.05548,0,0,1-48.73517-31.18872,29.53,29.53,0,0,1,30.09712-21.17871c4.46767.29032,8.79562,2.45192,13.24259,3.5302,1.15325.27965,2.98229.1734,3.71189-.55063,20.49066-20.33488,40.87982-40.772,61.58417-61.49108a102.71367,102.71367,0,0,1-25.49783-61.49227H833.72245c-7.8677,18.76828-19.98286,26.48367-36.20748,23.08142a29.99557,29.99557,0,0,1-23.48679-30.29218c.38155-14.41431,11.09078-26.27883,25.88631-28.6789,14.88472-2.41454,27.598,6.45139,33.66686,23.58058h24.64a106.787,106.787,0,0,1,7.55351-32.64033,103.4653,103.4653,0,0,1,17.9193-28.699c-.75853-.875-1.4141-1.732-2.17018-2.48861q-29.15727-29.17743-58.28051-58.38844c-2.03881-2.05711-3.41469-2.20943-5.9816-.89783a29.68589,29.68589,0,0,1-36.11312-7.20712,30.05842,30.05842,0,0,1,32.62833-48.03969,29.65658,29.65658,0,0,1,20.01937,30.5531c-.39446,4.23325-2.4509,8.2968-3.55059,12.48943-.28041,1.06905-.27075,2.78919.37842,3.44362,20.4179,20.58335,40.93148,41.07179,61.68114,61.8254a102.81328,102.81328,0,0,1,61.55273-25.55226v-24.589c-18.29542-7.17549-26.324-19.47786-23.226-35.48707a29.90816,29.90816,0,0,1,29.71883-24.17315c14.55351.12836,26.54057,10.4824,29.21471,25.23473,2.7457,15.1472-5.73682,27.64341-23.43724,34.40054v24.60557a102.31255,102.31255,0,0,1,61.38186,25.44373c.8964-.79175,1.74668-1.46554,2.509-2.22737q29.17618-29.15853,58.36814-58.30114c1.81482-1.80538,2.37049-3.03478,1.00025-5.64439a29.58982,29.58982,0,0,1,6.84528-36.16271,30.02783,30.02783,0,0,1,48.44819,31.762,29.57787,29.57787,0,0,1-30.44216,20.68881c-4.23374-.34193-8.3144-2.37971-12.51685-3.43519-1.18272-.297-3.0617-.38015-3.75634.30965q-30.72907,30.51529-61.25327,61.23692a3.51675,3.51675,0,0,0-.30634.65245,102.5137,102.5137,0,0,1,25.34035,61.292H1086.394c6.19366-17.19753,18.785-25.98552,33.65876-23.58976,14.95289,2.40852,25.66673,14.40624,25.92579,29.03259a30.0244,30.0244,0,0,1-23.47483,29.93911c-16.24778,3.42438-28.60989-4.44468-36.211-23.08577h-24.5561a105.07211,105.07211,0,0,1-7.59346,32.758,103.1916,103.1916,0,0,1-17.87469,28.58849c.77829.874,1.38573,1.62867,2.06666,2.31q29.2922,29.30768,58.557,58.64248c1.88291,1.89555,3.16668,2.16771,5.66612.86685a29.66983,29.66983,0,0,1,36.16469,6.98552,30.05158,30.05158,0,0,1-32.33324,48.22008,29.69427,29.69427,0,0,1-20.19034-30.79624c.40259-4.11408,2.418-8.0535,3.46344-12.13217.29738-1.16017.27328-3.01736-.43431-3.731q-30.23071-30.48874-60.66351-60.77705A7.5119,7.5119,0,0,0,1027.4405,616.37228ZM870.00013,539.978c-.00528,49.57406,40.376,90.064,89.77947,90.02093A90.00007,90.00007,0,1,0,870.00013,539.978Zm-66.071-173.95466a17.97989,17.97989,0,1,0,18.05217,18.09944A18.05214,18.05214,0,0,0,803.92909,366.02336Zm311.948-.01258a17.97906,17.97906,0,1,0,18.0952,18.05784A18.02928,18.02928,0,0,0,1115.87705,366.01078ZM821.9818,540.09449a17.98068,17.98068,0,1,0-17.87569,17.89015A18.05342,18.05342,0,0,0,821.9818,540.09449Zm311.98832-.18157a17.97679,17.97679,0,1,0-17.70893,18.05693A18.06194,18.06194,0,0,0,1133.97012,539.91292ZM804.10906,678.02715a17.97938,17.97938,0,1,0,17.87331,18.2789A18.05608,18.05608,0,0,0,804.10906,678.02715Zm311.96733,35.94435a17.97882,17.97882,0,1,0-18.06007-18.09037A18.04177,18.04177,0,0,0,1116.07639,713.9715ZM977.96857,384.0202a17.97674,17.97674,0,1,0-18.19122,17.96333A18.04388,18.04388,0,0,0,977.96857,384.0202Zm.01449,311.85a17.98071,17.98071,0,1,0-18.05274,18.10124A18.039,18.039,0,0,0,977.98306,695.87021Z" transform="translate(-773.84255 -353.84799)"/><path d="M965.27182,469.00317c4.69539,2.80223,10.0378,4.91757,13.92541,8.57733,5.07231,4.775,5.66414,11.39361,3.65834,18.1098-6.40827,21.45738-12.79115,42.92233-19.635,65.89888-3.1605-13.21074-9.22525-22.68627-20.46447-28.10486-11.34109-5.46771-22.67852-4.9097-34.96576.57355,5.15587-7.489,9.78063-14.27948,14.48131-21.017,6.651-9.53288,13.58817-18.87556,19.967-28.58582,4.94973-7.53484,10.64009-13.70528,19.93052-15.45189Z" transform="translate(-773.84255 -353.84799)"/><path d="M923.90308,601.34144c-6.07405-2.44-12.71379-4.00647-18.10728-7.49727-12.14446-7.86023-15.49975-20.18437-13.52074-33.7639,1.82824-12.545,14.12325-23.98569,26.11063-26.85394,20.58954-4.92654,45.04123,11.84827,41.28365,38.30135a33.69068,33.69068,0,0,1-28.43489,28.63188,15.83348,15.83348,0,0,0-3.19449,1.18188Zm-30.271-34.97315c-1.07691,17.2626,13.83083,32.81826,32.03114,32.99268,18.82327.18039,32.339-15.74791,32.82419-31.27651.572-18.3087-14.03228-33.844-32.23672-34.02659C907.96105,533.87443,892.76017,549.21964,893.63206,566.36829Z" transform="translate(-773.84255 -353.84799)"/><path d="M1019.89779,579.773c-10.84391-5.69773-20.78144-1.88941-30.65274,1.23119-11.82057,3.73683-23.5259,7.83793-35.43954,11.83439,2.59945-5.191,5.57555-10.02057,7.49874-15.238,2.81655-7.64116,4.8948-15.55534,7.259-23.36186,4.138-13.66371,8.14564-27.36883,12.50539-40.96125a8.36941,8.36941,0,0,1,4.46887-4.66537,150.427,150.427,0,0,1,18.55027-5.57728,18.54685,18.54685,0,0,1,9.42408.28959,7.40344,7.40344,0,0,1,4.12962,5.31076c.72831,10.6252.88239,21.29,1.21976,31.94165q.53043,16.74783,1.02964,33.49663C1019.94053,575.74573,1019.89779,577.4208,1019.89779,579.773Z" transform="translate(-773.84255 -353.84799)"/><path d="M941.49428,542.41271c-11.81614-6.37137-23.16659-5.14393-34.14886,2.09145C914.86855,535.71322,934.0832,534.94335,941.49428,542.41271Z" transform="translate(-773.84255 -353.84799)"/><path d="M910.53531,591.02979q15.4644,8.127,30.92-.01677C935.43129,597.7503,916.68773,597.77581,910.53531,591.02979Z" transform="translate(-773.84255 -353.84799)"/><path d="M946.59642,581.06809c3.25124-7.30977,5.27629-14.98637,2.08167-22.6004-1.84264-4.39173-5.50007-8.02251-8.34068-11.99579C951.87227,552.43714,954.9087,569.22073,946.59642,581.06809Z" transform="translate(-773.84255 -353.84799)"/><path d="M940.56045,546.63178c-9.69183-5.42717-19.38827-5.68652-29.09-.0259C917.46693,539.66428,934.71923,539.784,940.56045,546.63178Z" transform="translate(-773.84255 -353.84799)"/><path d="M911.51289,586.91556c9.62351,5.32171,19.24323,5.4584,28.85886-.021C932.46024,593.78334,919.82565,593.79256,911.51289,586.91556Z" transform="translate(-773.84255 -353.84799)"/><path d="M908.438,577.6926c2.85976,2.35059,5.43807,5.22177,8.63484,6.949,7.9232,4.281,16.39979,2.71079,22.80778-3.60141,1.20706-1.189,2.45309-2.33852,3.68113-3.50626-3.42938,6.72346-9.18974,9.80065-16.46951,10.14335C918.963,588.06,912.50085,585.04387,908.438,577.6926Z" transform="translate(-773.84255 -353.84799)"/><path d="M915.6781,579.73787c6.87439,3.82172,13.73316,3.98374,20.57385-.08779C929.70106,584.98963,922.53911,585.0202,915.6781,579.73787Z" transform="translate(-773.84255 -353.84799)"/><path d="M926.09537,553.91265c7.31023-.92619,12.9633,6.34171,13.06416,12.8588.10974,7.09129-6.0148,12.70857-13.3383,12.66983-7.24922-.03835-13.28676-5.90507-13.06343-12.94337C912.93585,560.88681,917.94239,552.95194,926.09537,553.91265Z" transform="translate(-773.84255 -353.84799)"/></svg>