<svg id="Layer_1" data-name="Layer 1" xmlns="http://www.w3.org/2000/svg" viewBox="0 0 470.23272 337.83247"><defs><style>.cls-1,.cls-2,.cls-3,.cls-4,.cls-5{fill:none;}.cls-1{stroke:#41d400;}.cls-1,.cls-2,.cls-3,.cls-4{stroke-miterlimit:10;}.cls-2,.cls-3,.cls-4{stroke:#000;}.cls-2{stroke-width:10px;}.cls-3{stroke-width:11px;}.cls-4{stroke-width:7px;}</style></defs><path class="cls-1" d="M723.3,540.61l-8.72,8.72A79.77625,79.77625,0,0,1,723.3,540.61Z" transform="translate(-690.73999 -346.2075)"/><path class="cls-1" d="M835.57,649.81a79.29262,79.29262,0,0,1-12,11.95Z" transform="translate(-690.73999 -346.2075)"/><path class="cls-2" d="M774.38,521.77a78.31851,78.31851,0,0,0-51.08,18.84l-8.72,8.72c-.88,1.02-1.73,2.07-2.54,3.13995A78.63966,78.63966,0,0,0,823.57,661.76l12-11.95a78.64242,78.64242,0,0,0-61.19-128.04ZM785.29,625.72A27.56083,27.56083,0,1,1,801.94,600.4,27.53167,27.53167,0,0,1,785.29,625.72Z" transform="translate(-690.73999 -346.2075)"/><path class="cls-3" d="M801.94,600.4a27.555,27.555,0,1,1-55.11,0,27.56859,27.56859,0,0,1,27.55-27.55A27.55914,27.55914,0,0,1,801.94,600.4Z" transform="translate(-690.73999 -346.2075)"/><path class="cls-2" d="M1001.11,481.21,842.36,639.96A78.64877,78.64877,0,0,0,723.3,540.61L889.61,374.3a78.84222,78.84222,0,0,1,111.5,0A75.60112,75.60112,0,0,1,1001.11,481.21Z" transform="translate(-690.73999 -346.2075)"/><path class="cls-4" d="M1152.93994,469.45,956.09,676.26l-146.3-.77,13.78-13.73a79.29262,79.29262,0,0,0,12-11.95l183.32-182.66Z" transform="translate(-690.73999 -346.2075)"/><path class="cls-5" d="M835.57,649.81a79.29262,79.29262,0,0,1-12,11.95Z" transform="translate(-690.73999 -346.2075)"/><path class="cls-5" d="M963.74468,675.48936" transform="translate(-690.73999 -346.2075)"/></svg>