<svg id="Layer_1" data-name="Layer 1" xmlns="http://www.w3.org/2000/svg" viewBox="0 0 810.10189 481.0962"><path d="M887.45255,35.358c10.03118,3.14427,12.70446,10.73189,12.59913,20.27788-.1556,14.1-.02961,28.20307-.04325,42.30482-.01406,14.47343-7.21471,21.8256-21.78008,22.0795-8.74534.15246-17.49441.09673-26.24172.142a5.43328,5.43328,0,0,0-.95973.39446V334.80417H756.09483c-.56191,10.49824-1.10645,20.67181-1.66252,31.06023-9.28989.72077-18.247,1.41575-27.77458,2.155,0,1.6033.0016,3.09892-.00021,4.59451-.02682,21.85708.36046,43.7248-.20046,65.5682-.53892,20.98512-6.31347,40.33089-21.69832,55.65041a68.99382,68.99382,0,0,1-44.99617,20.11592c-21.76944,1.46433-43.65933,1.14027-65.81357,1.59364V81.47289c3.619,0,7.2347-.15424,10.83366.02589,18.57745.92982,37.1733,1.63665,55.72047,2.99652,36.19786,2.654,61.55839,26.8658,65.10029,63.12091,1.61157,16.496,1.06707,33.20772,1.36759,49.824.15809,8.74025-.02052,17.48605.04775,26.22862.04739,6.06317.82982,6.72179,6.67806,7.17047,6.04112.46347,12.06017,1.21877,18.10257,1.65852,2.29323.16689,2.69359,1.26855,2.75658,3.25895.20486,6.47575.78155,12.94508.81432,19.41892.01958,3.86919,1.39555,5.05589,5.24752,4.91338,7.884-.29178,15.7862-.08751,24.38219-.08751V35.358Z" transform="translate(-89.95275 -35.35804)"/><path d="M249.0709,516.45423c-18.21833-.62719-36.11652-.79116-53.94007-2.02883-10.46733-.72687-21.20669-1.92678-31.14229-5.06686-26.38875-8.34012-41.24621-27.53169-45.98055-54.29376-1.7508-9.89676-1.536-20.187-1.70625-30.30632-.28452-16.91316-.11852-33.83351-.22657-50.75028-.03641-5.701-.50538-6.13132-6.23184-6.49964-6.57363-.42282-13.15509-.72426-19.89058-1.08689V232.30089c7.34351-.51364,14.59864-1.24771,21.86785-1.43441,3.66336-.09411,4.80638-1.196,4.7786-4.91406-.16324-21.85185-.14188-43.7058-.05506-65.55851.04791-12.05688,1.91234-23.832,6.73954-34.96879,10.31553-23.79875,29.28128-36.363,54.11863-40.932,18.72824-3.44515,37.65815-1.91768,56.5256-1.715,4.92078.05285,9.84261.00795,15.143.00795Z" transform="translate(-89.95275 -35.35804)"/><path d="M537.22765,166.63024h40.039V433.20132c-8.56529,0-17.12474.15013-25.6736-.08448a20.21969,20.21969,0,0,1-8.42979-1.88405,9.887,9.887,0,0,1-5.505-9.29128q-.26884-126.22255-.59525-252.4449C537.061,168.67682,537.15448,167.8568,537.22765,166.63024Z" transform="translate(-89.95275 -35.35804)"/><path d="M358.04922,431.98659H319.13334V166.66553h38.91588Z" transform="translate(-89.95275 -35.35804)"/><path d="M468.11653,432.0539h-39.132V167.02221h39.132Z" transform="translate(-89.95275 -35.35804)"/><path d="M302.44846,432.366h-36.636V167.24242h36.636Z" transform="translate(-89.95275 -35.35804)"/><path d="M521.74611,432.36415H484.80949V167.2688h36.93662Z" transform="translate(-89.95275 -35.35804)"/><path d="M374.80239,167.2295h37.25636V431.892H374.80239Z" transform="translate(-89.95275 -35.35804)"/></svg>